<svg xmlns="http://www.w3.org/2000/svg" viewBox="0 0 278.67 181.99" width="246.67" height="149.99" fill="transparent">
  <g transform="translate(18.149999999999977, 16) rotate(0, 119.08, 0.5)">
    <g id="dc8c5d6e-3aaf-443a-198a-a873b50da271_svg" class="tl-centered-g">
      <defs>
        <mask id="dc8c5d6e-3aaf-443a-198a-a873b50da271_clip">
          <rect x="-100" y="-100" width="438.15" height="201" fill="white"/>
          <rect x="119.08" y="0" width="0" height="0" rx="4" ry="4" fill="black" opacity="1"/>
        </mask>
      </defs>
      <g pointer-events="none" opacity="1" mask="">
        <path d="M 0,-0.86 Q 0,-0.86 29.77,-0.82 59.54,-0.78 89.31,-0.75 119.08,-0.72 148.85,-0.70 178.62,-0.68 208.39,-0.66 238.16,-0.64 238.26,-0.63 238.36,-0.61 238.46,-0.56 238.55,-0.51 238.62,-0.44 238.69,-0.36 238.74,-0.26 238.78,-0.17 238.79,-0.06 238.80,0.03 238.78,0.13 238.76,0.24 238.70,0.33 238.65,0.42 238.57,0.48 238.49,0.55 238.39,0.59 238.29,0.63 238.19,0.64 238.08,0.64 237.98,0.61 237.88,0.58 237.80,0.53 237.71,0.47 237.64,0.38 237.58,0.30 237.55,0.20 237.51,0.10 237.51,-0.00 237.51,-0.10 237.55,-0.20 237.58,-0.30 237.64,-0.38 237.71,-0.47 237.80,-0.53 237.88,-0.58 237.98,-0.61 238.08,-0.64 238.19,-0.64 238.29,-0.63 238.39,-0.59 238.49,-0.55 238.57,-0.48 238.65,-0.42 238.70,-0.33 238.76,-0.24 238.78,-0.13 238.80,-0.03 238.79,0.06 238.78,0.17 238.74,0.26 238.69,0.36 238.62,0.44 238.55,0.51 238.46,0.56 238.36,0.61 238.26,0.63 238.15,0.64 238.15,0.64 238.16,0.64 208.39,0.66 178.62,0.68 148.85,0.70 119.08,0.72 89.31,0.75 59.54,0.78 29.77,0.82 0,0.86 -0.10,0.85 -0.20,0.84 -0.30,0.80 -0.40,0.76 -0.49,0.71 -0.57,0.65 -0.64,0.57 -0.71,0.49 -0.76,0.40 -0.81,0.30 -0.83,0.20 -0.86,0.10 -0.86,-0.00 -0.86,-0.10 -0.83,-0.20 -0.81,-0.30 -0.76,-0.40 -0.71,-0.49 -0.64,-0.57 -0.57,-0.65 -0.49,-0.71 -0.40,-0.76 -0.30,-0.80 -0.20,-0.84 -0.10,-0.85 Z" fill="#1d1d1d" stroke="#1d1d1d" stroke-width="2.11" stroke-dasharray="none" stroke-dashoffset="none" stroke-linecap="round" stroke-linejoin="round" pointer-events="stroke"/>
      </g>
    </g>
    <g font-size="28" font-family="Caveat Brush" text-align="left" fill="#1d1d1d" transform-origin="top left" transform="translate(111.08, -15.5)">
      <text y="18.2"/>
    </g>
  </g>
  <g transform="translate(16.370000000000005, 50.50) rotate(0, 122.58, 0.5)">
    <g id="abd283c5-889c-42c2-154c-ca6a04e58239_svg" class="tl-centered-g">
      <defs>
        <mask id="abd283c5-889c-42c2-154c-ca6a04e58239_clip">
          <rect x="-100" y="-100" width="445.16" height="201" fill="white"/>
          <rect x="122.58" y="0" width="0" height="0" rx="4" ry="4" fill="black" opacity="1"/>
        </mask>
      </defs>
      <g pointer-events="none" opacity="1" mask="">
        <path d="M 0,-0.89 Q 0,-0.89 30.64,-0.85 61.29,-0.82 91.93,-0.79 122.58,-0.76 153.23,-0.74 183.87,-0.72 214.52,-0.70 245.17,-0.68 245.28,-0.67 245.39,-0.65 245.48,-0.60 245.58,-0.54 245.66,-0.46 245.74,-0.38 245.78,-0.28 245.83,-0.18 245.84,-0.07 245.85,0.03 245.83,0.14 245.81,0.25 245.75,0.35 245.69,0.44 245.61,0.51 245.52,0.59 245.42,0.63 245.31,0.67 245.20,0.67 245.09,0.68 244.98,0.65 244.88,0.62 244.78,0.56 244.69,0.50 244.62,0.41 244.56,0.32 244.52,0.21 244.48,0.11 244.48,-0.00 244.48,-0.11 244.52,-0.21 244.56,-0.32 244.62,-0.41 244.69,-0.50 244.78,-0.56 244.88,-0.62 244.98,-0.65 245.09,-0.68 245.20,-0.67 245.31,-0.67 245.42,-0.63 245.52,-0.59 245.61,-0.51 245.69,-0.44 245.75,-0.35 245.81,-0.25 245.83,-0.14 245.85,-0.03 245.84,0.07 245.83,0.18 245.78,0.28 245.74,0.38 245.66,0.46 245.58,0.54 245.48,0.60 245.39,0.65 245.27,0.67 245.16,0.68 245.16,0.68 245.17,0.68 214.52,0.70 183.87,0.72 153.23,0.74 122.58,0.76 91.93,0.79 61.29,0.82 30.64,0.85 0,0.89 -0.10,0.88 -0.21,0.87 -0.31,0.83 -0.41,0.79 -0.50,0.73 -0.59,0.67 -0.66,0.59 -0.73,0.51 -0.78,0.41 -0.83,0.31 -0.86,0.21 -0.89,0.10 -0.89,-0.00 -0.89,-0.10 -0.86,-0.21 -0.83,-0.31 -0.78,-0.41 -0.73,-0.51 -0.66,-0.59 -0.59,-0.67 -0.50,-0.73 -0.41,-0.79 -0.31,-0.83 -0.21,-0.87 -0.10,-0.88 Z" fill="#1d1d1d" stroke="#1d1d1d" stroke-width="2.11" stroke-dasharray="none" stroke-dashoffset="none" stroke-linecap="round" stroke-linejoin="round" pointer-events="stroke"/>
      </g>
    </g>
    <g font-size="28" font-family="Caveat Brush" text-align="left" fill="#1d1d1d" transform-origin="top left" transform="translate(114.585, -15.5)">
      <text y="18.2"/>
    </g>
  </g>
  <g transform="translate(19.089999999999918, 84.37) rotate(0, 55.2, 0.5)">
    <g id="c5396b98-5cf6-471c-1b6a-a28a24029781_svg" class="tl-centered-g">
      <defs>
        <mask id="c5396b98-5cf6-471c-1b6a-a28a24029781_clip">
          <rect x="-100" y="-100" width="310.4" height="201" fill="white"/>
          <rect x="55.2" y="0" width="0" height="0" rx="3.45" ry="3.45" fill="black" opacity="1"/>
        </mask>
      </defs>
      <g pointer-events="none" opacity="1" mask="">
        <path d="M 0,-1.05 Q 0,-1.05 13.8,-1.02 27.6,-0.99 41.40,-0.97 55.2,-0.95 69,-0.94 82.80,-0.92 96.60,-0.91 110.4,-0.90 110.54,-0.87 110.68,-0.85 110.81,-0.78 110.94,-0.71 111.04,-0.61 111.14,-0.50 111.20,-0.37 111.27,-0.24 111.28,-0.09 111.30,0.04 111.27,0.19 111.23,0.33 111.16,0.45 111.08,0.58 110.97,0.67 110.86,0.77 110.72,0.82 110.59,0.88 110.44,0.89 110.30,0.89 110.16,0.85 110.02,0.82 109.89,0.73 109.77,0.65 109.69,0.53 109.60,0.42 109.55,0.28 109.50,0.14 109.50,-0.00 109.50,-0.14 109.55,-0.28 109.60,-0.42 109.69,-0.53 109.77,-0.65 109.89,-0.73 110.02,-0.82 110.16,-0.85 110.30,-0.89 110.44,-0.89 110.59,-0.88 110.73,-0.82 110.86,-0.77 110.97,-0.67 111.08,-0.58 111.16,-0.45 111.23,-0.33 111.27,-0.19 111.30,-0.04 111.28,0.09 111.27,0.24 111.20,0.37 111.14,0.50 111.04,0.61 110.94,0.71 110.81,0.78 110.68,0.85 110.54,0.87 110.39,0.90 110.39,0.90 110.4,0.90 96.60,0.91 82.80,0.92 69,0.94 55.2,0.95 41.40,0.97 27.6,0.99 13.8,1.02 0,1.05 -0.12,1.03 -0.25,1.02 -0.37,0.97 -0.48,0.93 -0.59,0.85 -0.69,0.78 -0.78,0.69 -0.86,0.59 -0.92,0.48 -0.98,0.37 -1.01,0.25 -1.04,0.12 -1.04,-0.00 -1.04,-0.12 -1.01,-0.25 -0.98,-0.37 -0.92,-0.48 -0.86,-0.59 -0.78,-0.69 -0.69,-0.78 -0.59,-0.85 -0.48,-0.93 -0.37,-0.97 -0.25,-1.02 -0.12,-1.03 Z" fill="#1d1d1d" stroke="#1d1d1d" stroke-width="2.11" stroke-dasharray="none" stroke-dashoffset="none" stroke-linecap="round" stroke-linejoin="round" pointer-events="stroke"/>
      </g>
    </g>
    <g font-size="28" font-family="Caveat Brush" text-align="left" fill="#1d1d1d" transform-origin="top left" transform="translate(47.2, -15.5)">
      <text y="18.2"/>
    </g>
  </g>
  <g transform="translate(16, 117.67) rotate(0, 123.34, 24.16)">
    <g id="be87187d-0c70-44e6-21db-3723b00d41a8_svg" class="tl-centered-g">
      <path d="M 246.89,32.07 Q 246.89,32.07 246.94,34.12 246.99,36.17 246.99,38.81 247.00,41.45 245.16,44.10 243.31,46.75 236.23,47.48 229.15,48.21 221.09,48.32 213.03,48.43 204.67,48.43 196.31,48.43 187.87,48.41 179.44,48.38 170.98,48.35 162.53,48.32 154.07,48.29 145.61,48.25 137.14,48.22 128.68,48.18 120.22,48.24 111.76,48.30 103.29,48.36 94.83,48.42 86.37,48.48 77.90,48.54 69.44,48.60 60.98,48.66 52.52,48.71 44.05,48.77 35.59,48.83 27.13,48.89 18.64,48.95 10.16,49.00 6.07,47.31 1.99,45.61 0.85,42.83 -0.28,40.05 -0.44,37.19 -0.60,34.34 -0.54,31.58 -0.48,28.82 -0.47,26.08 -0.46,23.34 -0.53,20.60 -0.60,17.86 -0.66,15.12 -0.73,12.39 -0.77,9.57 -0.81,6.75 1.02,4.06 2.86,1.36 9.95,0.61 17.04,-0.13 25.12,-0.24 33.20,-0.36 41.57,-0.36 49.95,-0.37 58.40,-0.35 66.85,-0.32 75.32,-0.30 83.80,-0.27 92.27,-0.24 100.75,-0.21 109.23,-0.18 117.71,-0.15 126.19,-0.21 134.67,-0.27 143.15,-0.33 151.63,-0.40 160.11,-0.46 168.59,-0.52 177.07,-0.58 185.55,-0.64 194.03,-0.71 202.51,-0.77 210.99,-0.83 219.47,-0.89 227.97,-0.95 236.47,-1.01 240.57,0.68 244.66,2.38 245.77,5.17 246.88,7.95 247.01,10.82 247.14,13.68 247.05,16.44 246.96,19.21 246.91,21.96 246.86,24.70 246.90,27.45 246.93,30.20 246.94,33.88 246.95,37.56 246.91,37.80 246.87,38.03 246.75,38.24 246.64,38.44 246.46,38.60 246.28,38.76 246.07,38.86 245.85,38.95 245.61,38.97 245.38,38.99 245.15,38.94 244.92,38.88 244.72,38.75 244.52,38.63 244.37,38.44 244.22,38.26 244.14,38.04 244.05,37.81 244.05,37.58 244.04,37.34 244.11,37.11 244.17,36.89 244.31,36.69 244.45,36.50 244.64,36.36 244.83,36.22 245.06,36.15 245.28,36.08 245.52,36.09 245.76,36.09 245.98,36.17 246.20,36.25 246.39,36.40 246.57,36.55 246.70,36.75 246.83,36.95 246.89,37.18 246.95,37.41 246.93,37.64 246.91,37.88 246.82,38.10 246.73,38.31 246.57,38.49 246.41,38.67 246.21,38.79 246.00,38.90 245.77,38.95 245.54,39.00 245.30,38.96 245.07,38.93 244.85,38.83 244.64,38.72 244.47,38.56 244.30,38.39 244.20,38.18 244.09,37.97 244.06,37.73 244.03,37.50 244.03,37.50 244.03,37.50 244.20,33.82 244.38,30.14 244.53,27.40 244.68,24.67 244.72,21.94 244.77,19.21 244.68,16.53 244.59,13.85 244.36,11.39 244.13,8.93 243.47,6.87 242.81,4.81 239.60,3.54 236.39,2.26 227.93,2.24 219.47,2.21 210.99,2.18 202.51,2.15 194.03,2.12 185.55,2.09 177.07,2.06 168.59,2.03 160.11,2.00 151.63,1.97 143.15,1.94 134.67,1.90 126.20,1.87 117.72,1.84 109.24,1.91 100.76,1.97 92.28,2.03 83.80,2.09 75.33,2.16 66.86,2.22 58.41,2.29 49.96,2.37 41.61,2.46 33.25,2.56 25.28,2.76 17.31,2.96 11.00,3.35 4.69,3.74 3.54,5.42 2.38,7.10 2.29,9.76 2.19,12.41 2.07,15.15 1.95,17.88 1.83,20.62 1.72,23.35 1.70,26.07 1.69,28.79 1.81,31.47 1.94,34.14 2.20,36.59 2.46,39.05 3.14,41.11 3.82,43.16 7.03,44.44 10.24,45.72 18.68,45.75 27.12,45.78 35.59,45.81 44.05,45.85 52.51,45.88 60.98,45.91 69.44,45.95 77.90,45.98 86.36,46.01 94.83,46.05 103.29,46.08 111.75,46.12 120.21,46.15 128.68,46.18 137.14,46.13 145.60,46.07 154.06,46.01 162.52,45.95 170.98,45.89 179.43,45.82 187.86,45.76 196.29,45.69 204.63,45.60 212.97,45.50 220.93,45.31 228.89,45.11 235.19,44.73 241.48,44.35 242.64,42.71 243.81,41.07 243.93,38.59 244.06,36.10 244.20,34.06 244.34,32.02 244.36,31.86 244.38,31.71 244.44,31.57 244.50,31.43 244.59,31.30 244.68,31.18 244.79,31.08 244.91,30.98 245.05,30.91 245.19,30.84 245.34,30.81 245.49,30.77 245.64,30.78 245.80,30.78 245.95,30.82 246.09,30.86 246.23,30.93 246.36,31.01 246.48,31.11 246.59,31.22 246.67,31.35 246.76,31.48 246.81,31.62 246.86,31.77 246.88,31.92 Z" fill="#1d1d1d" stroke="#1d1d1d" stroke-width="2" pointer-events="none"/>
    </g>
    <g font-size="28" font-family="Caveat Brush" text-align="left" fill="#1d1d1d" transform-origin="top left" transform="translate(115.34, 8.16)">
      <text y="18.2"/>
    </g>
  </g>
  <g font-size="28" font-family="Caveat Brush" text-align="center" text-anchor="middle" fill="#1d1d1d" transform="translate(24.799999999999955, 121.84) rotate(0, 56.5, 19)">
    <text y="18.2" x="56.5">uploading...</text>
  </g>
</svg>